<svg width="40" height="40" viewBox="0 0 40 40" fill="none" xmlns="http://www.w3.org/2000/svg">
<circle cx="20" cy="20" r="20" fill="#E8E8E8"/>
<g clip-path="url(#clip0_6_754)">
<path d="M27.8883 15.7449C27.8804 15.639 27.8356 15.5388 27.7614 15.4611L23.9405 11.2693C23.8957 11.221 23.841 11.1823 23.78 11.1558C23.7189 11.1294 23.6528 11.1157 23.586 11.1157C23.5192 11.1157 23.4531 11.1294 23.3921 11.1558C23.331 11.1823 23.2763 11.221 23.2316 11.2693L19.4107 15.4611C19.3682 15.5064 19.3353 15.5595 19.314 15.6173C19.2926 15.675 19.2831 15.7363 19.2861 15.7977C19.2891 15.859 19.3045 15.9191 19.3314 15.9747C19.3583 16.0302 19.3962 16.08 19.4429 16.1212C19.4895 16.1624 19.5441 16.1942 19.6034 16.2148C19.6627 16.2354 19.7256 16.2443 19.7885 16.2412C19.8514 16.238 19.913 16.2227 19.9698 16.1963C20.0267 16.1698 20.0776 16.1326 20.1196 16.0869L23.1047 12.8048L23.1047 25.1691C22.5506 25.3628 22.1495 25.8831 22.1495 26.4863C22.1495 27.2525 22.7966 27.8836 23.5823 27.8836C24.368 27.8836 25.0151 27.2525 25.0151 26.4863C25.0151 25.8831 24.614 25.3628 24.0599 25.1691L24.0599 12.8048L27.0524 16.0869C27.1185 16.1606 27.2066 16.212 27.3043 16.2341C27.402 16.2561 27.5043 16.2476 27.5968 16.2098C27.6893 16.172 27.7672 16.1067 27.8195 16.0232C27.8718 15.9398 27.8959 15.8424 27.8883 15.7449ZM24.0599 26.4863C24.0599 26.7491 23.8517 26.9521 23.5823 26.9521C23.3129 26.9521 23.1047 26.7491 23.1047 26.4863C23.1047 26.2236 23.3129 26.0206 23.5823 26.0206C23.8517 26.0206 24.0599 26.2236 24.0599 26.4863ZM20.7241 23.197C20.7193 23.1044 20.6862 23.0154 20.6292 22.9412C20.5722 22.8671 20.4939 22.8112 20.4041 22.7808C20.3144 22.7503 20.2174 22.7466 20.1255 22.7702C20.0336 22.7938 19.951 22.8435 19.8883 22.9131L16.8957 26.1953L16.8957 13.831C17.4498 13.6373 17.851 13.117 17.851 12.5137C17.851 11.7476 17.2038 11.1165 16.4181 11.1165C15.6324 11.1165 14.9853 11.7476 14.9853 12.5137C14.9853 13.117 15.3864 13.6373 15.9405 13.831L15.9405 26.1953L12.9554 22.9131C12.9134 22.8674 12.8625 22.8303 12.8057 22.8038C12.7488 22.7774 12.6872 22.7621 12.6243 22.7589C12.5615 22.7557 12.4986 22.7647 12.4392 22.7853C12.3799 22.8059 12.3254 22.8377 12.2787 22.8789C12.232 22.9201 12.1941 22.9699 12.1672 23.0254C12.1403 23.0809 12.1249 23.1411 12.122 23.2024C12.119 23.2638 12.1284 23.3251 12.1498 23.3828C12.1712 23.4406 12.204 23.4937 12.2465 23.539L16.0674 27.7308C16.1122 27.7791 16.1668 27.8178 16.2279 27.8442C16.289 27.8707 16.355 27.8844 16.4219 27.8844C16.4887 27.8844 16.5547 27.8707 16.6158 27.8442C16.6769 27.8178 16.7315 27.7791 16.7763 27.7308L20.5972 23.539C20.6408 23.4932 20.6745 23.4393 20.6963 23.3806C20.7181 23.3218 20.7276 23.2594 20.7241 23.197ZM16.8957 12.5137C16.8957 12.7765 16.6875 12.9795 16.4181 12.9795C16.1487 12.9795 15.9405 12.7765 15.9405 12.5137C15.9405 12.251 16.1487 12.048 16.4181 12.048C16.6875 12.048 16.8957 12.251 16.8957 12.5137Z" fill="black"/>
</g>
<defs>
<clipPath id="clip0_6_754">
<rect width="17" height="16" fill="white" transform="matrix(0 1 -1 0 28 11)"/>
</clipPath>
</defs>
</svg>
