<svg width="132" height="64" viewBox="0 0 132 64" fill="none" xmlns="http://www.w3.org/2000/svg">
<g clip-path="url(#clip0_6_1366)">
<path d="M127.662 0.111964L88.8627 10.5847C88.0101 10.838 87.2568 11.3501 86.7063 12.0504C86.1558 12.7507 85.8352 13.6049 85.7886 14.4955V21.0894L130.728 8.6493V2.36326C130.728 0.663792 129.361 -0.347892 127.662 0.111964Z" fill="url(#paint0_linear_6_1366)"/>
<path d="M85.8005 33.0857C85.8005 34.7891 87.176 35.7968 88.8746 35.337L127.662 24.8682C128.513 24.6123 129.265 24.0987 129.813 23.3979C130.362 22.6972 130.682 21.8434 130.728 20.9535V11.8243L85.7925 24.2604L85.8005 33.0857Z" fill="url(#paint1_linear_6_1366)"/>
<g opacity="0.15">
<mask id="mask0_6_1366" style="mask-type:luminance" maskUnits="userSpaceOnUse" x="85" y="11" width="46" height="48">
<path d="M130.728 31.6261V56.5583C130.728 58.2658 129.353 59.2735 127.65 58.8136L88.8627 48.3649C88.0092 48.1118 87.2551 47.5993 86.7045 46.8981C86.1538 46.1969 85.8338 45.3415 85.7886 44.4501V11.3524C85.7886 14.1516 88.0533 17.0427 90.8523 17.7984L127.646 27.7113C128.501 27.9635 129.256 28.4756 129.808 29.1768C130.36 29.878 130.682 30.7339 130.728 31.6261Z" fill="white"/>
</mask>
<g mask="url(#mask0_6_1366)">
<path d="M127.662 0.111964L88.8627 10.5847C88.0101 10.838 87.2568 11.3501 86.7063 12.0504C86.1558 12.7507 85.8352 13.6049 85.7886 14.4955V21.0894L130.728 8.6493V2.36326C130.728 0.663792 129.361 -0.347892 127.662 0.111964Z" fill="black"/>
<path d="M85.8005 33.0857C85.8005 34.7891 87.176 35.7968 88.8746 35.337L127.662 24.8682C128.513 24.6123 129.265 24.0987 129.813 23.3979C130.362 22.6972 130.682 21.8434 130.728 20.9535V11.8243L85.7925 24.2604L85.8005 33.0857Z" fill="black"/>
</g>
</g>
<path d="M130.728 36.7045V61.6367C130.728 63.3442 129.353 64.3519 127.65 63.892L88.8627 53.4393C88.0092 53.1875 87.2549 52.6759 86.7042 51.9753C86.1534 51.2746 85.8334 50.4196 85.7886 49.5285V16.4309C85.7886 19.23 88.0533 22.1211 90.8523 22.8728L127.658 32.8017C128.509 33.0553 129.26 33.5665 129.81 34.2651C130.36 34.9638 130.68 35.8159 130.728 36.7045Z" fill="url(#paint2_linear_6_1366)"/>
<path d="M115.604 45.9136C115.604 43.3584 117.674 41.8469 120.222 42.5467L130.329 45.3098C130.793 45.4505 131.202 45.7309 131.501 46.113C131.8 46.4951 131.974 46.9602 132 47.4452V53.3593C132.007 53.5633 131.964 53.7659 131.875 53.9491C131.785 54.1323 131.651 54.2904 131.486 54.4092C131.32 54.5281 131.128 54.6039 130.926 54.63C130.724 54.6562 130.519 54.6317 130.329 54.5589L120.222 51.7958C117.674 51.112 115.604 48.4728 115.604 45.9136Z" fill="url(#paint3_linear_6_1366)"/>
<path d="M122.281 49.2426C123.11 48.5164 123.011 47.0416 122.06 45.9486C121.108 44.8555 119.665 44.5581 118.835 45.2843C118.006 46.0105 118.105 47.4853 119.056 48.5783C120.008 49.6714 121.451 49.9688 122.281 49.2426Z" fill="white"/>
<path d="M32.9821 39.1318C32.2099 39.1387 31.439 39.0664 30.6814 38.9158C30.0272 38.784 29.3968 38.5534 28.8115 38.2321C28.249 37.9181 27.7424 37.5127 27.3123 37.0324C26.8489 36.502 26.4587 35.9116 26.152 35.277C23.353 37.8708 19.1624 39.1678 13.5804 39.1678C10.3906 39.1464 7.75509 38.7466 5.67378 37.9681C3.59246 37.1897 2.05739 36.0021 1.06857 34.4052C0.648186 33.6578 0.349379 32.8479 0.183411 32.006C0.0612462 31.41 -0.000206111 30.803 5.19347e-07 30.1946C5.19347e-07 29.9626 2.73303e-07 29.5788 0.055821 29.0469C0.120767 28.3655 0.266669 27.6943 0.490425 27.0475C0.744041 26.2651 1.08231 25.5129 1.49918 24.8042L4.44572 26.6597C4.1609 27.1289 3.91551 27.6211 3.71208 28.1312C3.52471 28.6017 3.40133 29.0953 3.34525 29.5987C3.32601 29.7821 3.31669 29.9663 3.31734 30.1506C3.32166 30.5065 3.35904 30.8613 3.42899 31.2102C3.53633 31.681 3.73111 32.1273 4.00314 32.5258C4.32376 33.0405 4.7715 33.4634 5.30297 33.7535C5.96715 34.1232 6.67793 34.4016 7.41618 34.5812C8.33325 34.8092 9.26628 34.967 10.2072 35.053C11.2492 35.157 12.3696 35.209 13.5684 35.209C14.6569 35.209 15.6936 35.169 16.6705 35.085C17.5871 35.0105 18.4981 34.8769 19.3977 34.6852C20.1784 34.5256 20.9431 34.2954 21.6824 33.9974C22.3175 33.7462 22.9095 33.3968 23.4367 32.9617C23.8704 32.634 24.2384 32.227 24.5212 31.7621C24.7965 31.3026 25.0275 30.8179 25.211 30.3145C25.3945 29.8056 25.5476 29.2862 25.6695 28.759C25.7892 28.2272 25.9207 27.7153 26.0683 27.2275L29.581 28.1752C29.3906 28.7159 29.2374 29.269 29.1225 29.8307C29.0241 30.3204 28.9734 30.8186 28.9709 31.3182V31.8141C28.9888 32.1905 29.0613 32.5623 29.1863 32.9177C29.323 33.3638 29.5573 33.7736 29.8721 34.1173C30.2195 34.4768 30.6453 34.7505 31.1161 34.9171C31.7239 35.1255 32.3638 35.2243 33.006 35.209H33.5562V39.1318H32.9821ZM14.5732 23.5646L11.9775 26.1678L9.34997 23.5486L11.9456 20.9295L14.5732 23.5646ZM20.3466 23.5646L17.751 26.1838L15.1234 23.5486L17.7191 20.9455L20.3466 23.5646Z" fill="white"/>
<path d="M47.4157 35.201V39.1238H32.9502V35.201H47.4157Z" fill="white"/>
<path d="M46.8057 35.201H47.9659C48.4371 35.2141 48.9073 35.1493 49.3575 35.0091C49.6974 34.8992 49.9953 34.6869 50.2107 34.4012C50.4326 34.0847 50.5773 33.7204 50.6334 33.3376C50.715 32.8179 50.7524 32.2921 50.745 31.7661C50.745 31.5341 50.745 31.2542 50.745 30.9263C50.745 30.5984 50.745 30.1586 50.745 29.5987C50.745 29.0389 50.7171 28.3391 50.6772 27.4874C50.6373 26.6357 50.5696 25.564 50.4779 24.2884C50.438 23.1954 50.3928 22.1491 50.3423 21.1494C50.2905 20.1457 50.2426 19.254 50.1948 18.4662C50.1469 17.6785 50.111 17.0307 50.0752 16.5188C50.0393 16.007 50.0154 15.7191 50.0074 15.5871L53.855 14.7594C53.9667 15.959 54.0703 17.3706 54.17 18.9701C54.2697 20.5696 54.3534 22.301 54.4371 24.1485C54.477 25.54 54.5129 26.6797 54.5408 27.5754C54.5687 28.4711 54.6006 29.2069 54.6285 29.7947C54.6564 30.3825 54.6684 30.8624 54.6804 31.2342C54.6923 31.6061 54.6804 31.97 54.6804 32.3179C54.6941 33.2792 54.5596 34.2369 54.2816 35.157C54.0503 35.9648 53.6285 36.7048 53.0517 37.3145C52.475 37.9242 51.7604 38.3857 50.9683 38.6599C49.9957 38.9974 48.9709 39.1585 47.942 39.1358H46.7817L46.8057 35.201Z" fill="white"/>
<path d="M61.7895 14.7554C62.0553 16.7068 62.2348 18.5729 62.3278 20.3536C62.4208 22.1344 62.482 23.8672 62.5112 25.552C62.5311 26.9916 62.5391 28.3271 62.5312 29.5508C62.5232 30.7744 62.5311 31.918 62.4953 32.9737C62.4594 34.0294 62.4434 35.0171 62.4036 35.9328C62.3637 36.8485 62.3198 37.7002 62.28 38.5L58.2928 39.1118C58.5081 35.7395 58.6157 32.7618 58.6157 30.1786C58.6157 29.1389 58.5998 28.1632 58.5679 27.2515C58.4881 25.1615 58.3964 23.1927 58.2928 21.3453C58.1891 19.4979 58.0562 17.7345 57.894 16.055L61.7895 14.7554Z" fill="white"/>
<path d="M64.9673 46.0256C66.3537 45.7553 67.7115 45.3536 69.0223 44.826C70.1258 44.3855 71.1791 43.8279 72.1642 43.1625C72.9752 42.6176 73.7032 41.9576 74.3252 41.2031C74.8346 40.5932 75.2121 39.8837 75.4337 39.1198C74.6096 39.1198 73.8042 39.0931 73.0174 39.0398C72.2711 38.9939 71.5289 38.8951 70.7966 38.7439C70.1336 38.606 69.4878 38.3955 68.8707 38.1161C68.3037 37.8567 67.7909 37.4917 67.3596 37.0404C66.9245 36.5814 66.5891 36.0367 66.3748 35.4409C66.1246 34.712 66.0057 33.9443 66.0239 33.1736C66.0264 32.5825 66.0878 31.9931 66.2073 31.4142C66.3267 30.7954 66.5029 30.189 66.7336 29.6027C66.959 29.0199 67.2422 28.4613 67.5789 27.9353C67.9056 27.4219 68.2969 26.9528 68.7432 26.5397C69.1699 26.1416 69.6606 25.8185 70.1945 25.584C70.733 25.3448 71.3161 25.2235 71.905 25.2281C73.4786 25.2281 74.9193 25.9332 76.2271 27.3434C76.7106 27.8858 77.1331 28.4799 77.4871 29.1149C77.865 29.7886 78.1813 30.4953 78.432 31.2262C78.6972 31.993 78.8973 32.7809 79.0301 33.5815C79.1673 34.4008 79.2366 35.23 79.2374 36.0607C79.2459 37.3019 79.0781 38.5379 78.739 39.7316C78.4223 40.84 77.954 41.8991 77.3475 42.8786C76.7559 43.8359 76.0399 44.71 75.2184 45.4778C74.3886 46.2513 73.4767 46.9312 72.4991 47.5052C71.4957 48.0961 70.4366 48.5863 69.3372 48.9687C68.2141 49.3624 67.0587 49.6568 65.8843 49.8484L64.9673 46.0256ZM71.905 29.1709C71.591 29.1889 71.2908 29.3065 71.0478 29.5068C70.7247 29.7512 70.441 30.0438 70.2065 30.3745C69.9477 30.7373 69.7348 31.1308 69.5725 31.5461C69.4122 31.9454 69.3283 32.3714 69.3253 32.8017C69.3104 33.1791 69.4151 33.5514 69.6243 33.8654C69.8232 34.1483 70.0836 34.3821 70.3859 34.5492C70.7171 34.7326 71.073 34.8673 71.4425 34.9491C71.8412 35.033 72.2399 35.097 72.6107 35.141L73.3125 35.169C73.5677 35.169 73.8308 35.169 74.1099 35.193H74.9074H75.653C75.6171 34.7753 75.5437 34.3618 75.4337 33.9574C75.3117 33.5018 75.1612 33.0544 74.9831 32.6178C74.8003 32.1739 74.5912 31.7412 74.3571 31.3222C74.1378 30.9325 73.8843 30.5631 73.5996 30.2186C73.3587 29.9239 73.0782 29.6642 72.7662 29.4468C72.5144 29.2679 72.2136 29.1715 71.905 29.1709Z" fill="white"/>
<path d="M1.74261 48.6408C1.8875 48.8037 2.06036 48.9391 2.25297 49.0407C2.43859 49.1339 2.64349 49.1818 2.85105 49.1806C3.07055 49.1904 3.28647 49.1224 3.46109 48.9887C3.53807 48.9256 3.59939 48.8455 3.64021 48.7546C3.68103 48.6636 3.70025 48.5645 3.69634 48.4649C3.70098 48.2948 3.64436 48.1287 3.53685 47.997C3.41765 47.8656 3.27231 47.7607 3.11022 47.6891C2.92282 47.5971 2.7115 47.5012 2.41645 47.3972C2.27291 47.3452 2.10545 47.2732 1.91805 47.1853C1.72578 47.0912 1.54624 46.9729 1.38376 46.8334C1.22009 46.6862 1.08492 46.5099 0.985046 46.3135C0.871006 46.0812 0.814907 45.8246 0.821571 45.5658C0.812867 45.245 0.906455 44.9298 1.08871 44.666C1.26861 44.4078 1.51731 44.2055 1.80641 44.0822C2.12899 43.9395 2.47858 43.8685 2.83112 43.8743C3.17488 43.8667 3.51622 43.9335 3.8319 44.0702C4.0969 44.19 4.33649 44.3597 4.53764 44.5701C4.71297 44.7564 4.85947 44.968 4.97224 45.1979L3.99937 45.7417C3.91844 45.5974 3.82074 45.4631 3.7083 45.3418C3.59192 45.2258 3.4572 45.1298 3.30958 45.0579C3.15622 44.9811 2.98657 44.9427 2.81517 44.946C2.6168 44.9325 2.42056 44.9938 2.26494 45.1179C2.20747 45.1674 2.16134 45.2287 2.12969 45.2978C2.09803 45.3668 2.0816 45.4418 2.08152 45.5178C2.07896 45.6656 2.13321 45.8088 2.23304 45.9177C2.36146 46.0532 2.51435 46.1631 2.68359 46.2416C2.93197 46.3605 3.18767 46.4633 3.44913 46.5495C3.64571 46.6194 3.83528 46.7077 4.01531 46.8134C4.19769 46.9154 4.36536 47.0419 4.51371 47.1893C4.66228 47.3395 4.78012 47.5175 4.8606 47.7131C5.04078 48.1959 5.02359 48.7305 4.81275 49.2006C4.69913 49.43 4.53562 49.6309 4.33429 49.7884C4.12973 49.9484 3.89904 50.0715 3.65248 50.1523C3.39529 50.2378 3.12599 50.2811 2.85504 50.2803C2.49858 50.2824 2.14558 50.2102 1.81837 50.0684C1.50446 49.9313 1.22009 49.7344 0.981059 49.4885C0.750953 49.2558 0.562171 48.9853 0.422852 48.6888L1.30801 48.061C1.43207 48.2691 1.57775 48.4635 1.74261 48.6408Z" fill="white"/>
<path d="M8.57636 43.9982V50.1003H7.31641V43.9982H8.57636Z" fill="white"/>
<path d="M16.7221 43.9982V50.3962L12.392 46.3135V50.0963H11.1958V43.6983L15.5259 47.7851V43.9982H16.7221Z" fill="white"/>
<path d="M20.6177 48.093C20.791 48.3837 21.0388 48.6226 21.3354 48.7847C21.6316 48.9452 21.9636 49.0277 22.3003 49.0247C22.7928 49.0379 23.2774 48.8982 23.6878 48.6248C23.8606 48.504 24.0186 48.363 24.1583 48.2049V49.5965C23.9181 49.7917 23.6491 49.9482 23.3609 50.0603C23.0035 50.1786 22.6286 50.234 22.2524 50.2243C21.8115 50.2286 21.3736 50.1513 20.9606 49.9964C20.5761 49.8543 20.2254 49.6333 19.9308 49.3475C19.6363 49.0618 19.4045 48.7176 19.2501 48.3369C18.931 47.5097 18.931 46.5929 19.2501 45.7657C19.4045 45.385 19.6363 45.0408 19.9308 44.755C20.2254 44.4693 20.5761 44.2483 20.9606 44.1062C21.3736 43.9513 21.8115 43.874 22.2524 43.8783C22.6289 43.8677 23.0043 43.9246 23.3609 44.0462C23.6489 44.1569 23.918 44.3121 24.1583 44.5061V45.9096C24.0175 45.7585 23.8596 45.6243 23.6878 45.5098C23.4987 45.3775 23.292 45.2725 23.0738 45.1979C22.8237 45.119 22.5624 45.0812 22.3003 45.0859C21.9636 45.0829 21.6316 45.1654 21.3354 45.3258C21.04 45.4861 20.7924 45.722 20.6177 46.0096C20.4374 46.3306 20.3427 46.6929 20.3427 47.0613C20.3427 47.4297 20.4374 47.7919 20.6177 48.113V48.093Z" fill="white"/>
<path d="M27.8944 43.9982V50.1003H26.6982V43.9982H27.8944ZM27.4957 43.9982H30.5658V45.0539H27.4957V43.9982ZM27.4957 46.3415H30.3904V47.3812H27.4957V46.3415ZM27.4957 49.0447H30.5658V50.1003H27.4957V49.0447Z" fill="white"/>
<path d="M39.2817 47.1972C39.4224 47.0467 39.5554 46.8893 39.6804 46.7254C39.7855 46.5936 39.8702 46.4466 39.9316 46.2895C39.9904 46.1462 40.0203 45.9926 40.0193 45.8377C40.0195 45.7269 39.9992 45.6171 39.9595 45.5138C39.9183 45.41 39.8558 45.316 39.7761 45.2379C39.6925 45.1525 39.592 45.0857 39.481 45.0419C39.3549 44.9888 39.2191 44.9629 39.0823 44.9659C38.8867 44.9612 38.6941 45.014 38.5281 45.1179C38.3723 45.2262 38.2494 45.3757 38.1732 45.5498C38.0855 45.7528 38.042 45.9723 38.0457 46.1936H36.8296C36.8237 45.7868 36.9125 45.3843 37.0887 45.0179C37.2613 44.673 37.5282 44.3845 37.8583 44.1862C38.2378 43.9696 38.6698 43.863 39.1062 43.8783C39.4344 43.8715 39.7607 43.9285 40.0672 44.0462C40.3233 44.1463 40.5565 44.2973 40.753 44.4901C40.924 44.6648 41.0594 44.8712 41.1517 45.0979C41.2373 45.3073 41.282 45.5313 41.2832 45.7577C41.2857 46.0778 41.2061 46.3931 41.052 46.6734C40.8892 46.9638 40.6805 47.2258 40.434 47.4492L38.8391 48.9487H41.4148V50.0923H36.5186L39.2817 47.1972Z" fill="white"/>
<path d="M43.7674 45.3698C43.9484 44.9331 44.2465 44.5553 44.6286 44.2782C45.0093 44.0252 45.4559 43.8903 45.9125 43.8903C46.3692 43.8903 46.8157 44.0252 47.1964 44.2782C47.5772 44.5546 47.8729 44.9329 48.0497 45.3698C48.4538 46.4487 48.4538 47.6379 48.0497 48.7168C47.873 49.1548 47.5774 49.5344 47.1964 49.8124C46.8157 50.0654 46.3692 50.2003 45.9125 50.2003C45.4559 50.2003 45.0093 50.0654 44.6286 49.8124C44.2464 49.5338 43.9483 49.1546 43.7674 48.7168C43.3581 47.6389 43.3581 46.4477 43.7674 45.3698ZM44.7562 47.885C44.8036 48.1159 44.8885 48.3375 45.0074 48.5408C45.109 48.7022 45.2452 48.8388 45.4061 48.9407C45.5563 49.0398 45.7328 49.0913 45.9125 49.0887C46.0935 49.0914 46.2712 49.0399 46.4229 48.9407C46.5846 48.8399 46.7211 48.7031 46.8216 48.5408C46.9405 48.3375 47.0254 48.1159 47.0728 47.885C47.1345 47.6095 47.1639 47.3277 47.1605 47.0453C47.1637 46.7616 47.1342 46.4785 47.0728 46.2016C47.0254 45.9719 46.9405 45.7517 46.8216 45.5498C46.7236 45.3792 46.587 45.234 46.4229 45.1259C46.2705 45.0284 46.0933 44.9771 45.9125 44.9779C45.733 44.9772 45.5571 45.0286 45.4061 45.1259C45.243 45.2351 45.1066 45.38 45.0074 45.5498C44.8885 45.7517 44.8036 45.9719 44.7562 46.2016C44.6948 46.4785 44.6654 46.7616 44.6685 47.0453C44.6651 47.3277 44.6946 47.6095 44.7562 47.885Z" fill="white"/>
<path d="M50.6615 45.3698C50.8397 44.9315 51.1384 44.5529 51.5227 44.2782C51.8936 44.0128 52.3391 43.8727 52.7946 43.8783C53.2579 43.8704 53.7117 44.0104 54.0905 44.2782C54.4691 44.556 54.7632 44.9339 54.9398 45.3698C55.349 46.4477 55.349 47.6389 54.9398 48.7168C54.7632 49.1538 54.4692 49.5331 54.0905 49.8124C53.7109 50.0784 53.2577 50.2183 52.7946 50.2123C52.3394 50.2159 51.8945 50.0761 51.5227 49.8124C51.1382 49.5361 50.8396 49.1562 50.6615 48.7168C50.2469 47.6398 50.2469 46.4467 50.6615 45.3698ZM51.6463 47.885C51.6975 48.1148 51.7822 48.3358 51.8975 48.5408C52.0003 48.7013 52.1362 48.8377 52.2962 48.9407C52.4483 49.0374 52.6246 49.0888 52.8046 49.0888C52.9847 49.0888 53.161 49.0374 53.313 48.9407C53.4736 48.8385 53.6098 48.7019 53.7117 48.5408C53.8271 48.3358 53.9117 48.1148 53.9629 47.885C54.0226 47.6092 54.052 47.3276 54.0506 47.0453C54.0518 46.7617 54.0224 46.4788 53.9629 46.2015C53.9119 45.973 53.8273 45.7533 53.7117 45.5498C53.6123 45.3802 53.476 45.2353 53.313 45.1259C53.161 45.0292 52.9847 44.9778 52.8046 44.9778C52.6246 44.9778 52.4483 45.0292 52.2962 45.1259C52.134 45.2362 51.9979 45.3809 51.8975 45.5498C51.7819 45.7533 51.6973 45.973 51.6463 46.2015C51.5869 46.4788 51.5575 46.7617 51.5586 47.0453C51.5572 47.3276 51.5866 47.6092 51.6463 47.885Z" fill="white"/>
<path d="M57.9978 50.0764L59.9555 47.7771L60.1708 47.6971C60.0511 47.8332 59.8988 47.9364 59.7282 47.997C59.5515 48.0522 59.367 48.0779 59.182 48.073C58.949 48.0721 58.7185 48.0246 58.5041 47.933C58.0447 47.7363 57.6799 47.3676 57.4874 46.9053C57.3829 46.6518 57.33 46.3799 57.3319 46.1056C57.3202 45.6837 57.4295 45.2673 57.6469 44.906C57.8533 44.5798 58.1478 44.3191 58.4962 44.1542C58.8693 43.9755 59.2789 43.8865 59.6923 43.8943C60.1057 43.8875 60.515 43.9764 60.8885 44.1542C61.2349 44.3204 61.5278 44.5809 61.7338 44.906C61.9524 45.267 62.0631 45.6833 62.0527 46.1056C62.0555 46.3949 61.9957 46.6814 61.8773 46.9453C61.7635 47.2011 61.6203 47.4426 61.4507 47.6651L59.6006 50.0883L57.9978 50.0764ZM60.6572 45.4898C60.5641 45.3218 60.426 45.1834 60.2585 45.0899C60.0804 44.9954 59.8819 44.9459 59.6804 44.9459C59.4788 44.9459 59.2804 44.9954 59.1022 45.0899C58.9348 45.1834 58.7967 45.3218 58.7035 45.4898C58.6012 45.6741 58.5502 45.8827 58.556 46.0936C58.5514 46.3044 58.6023 46.5126 58.7035 46.6974C58.7982 46.8642 58.9359 47.0024 59.1022 47.0973C59.2792 47.1953 59.4782 47.2467 59.6804 47.2467C59.8826 47.2467 60.0815 47.1953 60.2585 47.0973C60.4248 47.0024 60.5626 46.8642 60.6572 46.6974C60.7585 46.5126 60.8093 46.3044 60.8048 46.0936C60.8105 45.8827 60.7595 45.6741 60.6572 45.4898Z" fill="white"/>
</g>
<defs>
<linearGradient id="paint0_linear_6_1366" x1="85.8005" y1="10.5447" x2="130.736" y2="10.5447" gradientUnits="userSpaceOnUse">
<stop stop-color="#5BB9FD"/>
<stop offset="1" stop-color="#8E88FF"/>
</linearGradient>
<linearGradient id="paint1_linear_6_1366" x1="85.8005" y1="23.6366" x2="130.736" y2="23.6366" gradientUnits="userSpaceOnUse">
<stop stop-color="#5BB9FD"/>
<stop offset="1" stop-color="#8E88FF"/>
</linearGradient>
<linearGradient id="paint2_linear_6_1366" x1="85.8005" y1="40.2154" x2="130.736" y2="40.2154" gradientUnits="userSpaceOnUse">
<stop stop-color="#5BBAFD"/>
<stop offset="1" stop-color="#36EDFD"/>
</linearGradient>
<linearGradient id="paint3_linear_6_1366" x1="115.604" y1="48.5088" x2="132" y2="48.5088" gradientUnits="userSpaceOnUse">
<stop stop-color="#5BB9FD"/>
<stop offset="1" stop-color="#8E88FF"/>
</linearGradient>
<clipPath id="clip0_6_1366">
<rect width="132" height="64" fill="white"/>
</clipPath>
</defs>
</svg>
