<svg width="109" height="53" viewBox="0 0 109 53" fill="none" xmlns="http://www.w3.org/2000/svg">
<g clip-path="url(#clip0_6_1399)">
<path d="M105.418 0.0926314L73.3788 8.76536C72.6748 8.97515 72.0527 9.39919 71.5981 9.97915C71.1436 10.5591 70.8788 11.2665 70.8403 12.004V17.4646L107.95 7.16261V1.95699C107.95 0.549614 106.82 -0.288187 105.418 0.0926314Z" fill="url(#paint0_linear_6_1399)"/>
<path d="M70.8503 27.3991C70.8503 28.8097 71.9862 29.6442 73.3888 29.2634L105.418 20.594C106.121 20.382 106.741 19.9567 107.194 19.3764C107.648 18.7961 107.911 18.089 107.95 17.3521V9.79199L70.8438 20.0906L70.8503 27.3991Z" fill="url(#paint1_linear_6_1399)"/>
<g opacity="0.15">
<mask id="mask0_6_1399" style="mask-type:luminance" maskUnits="userSpaceOnUse" x="70" y="9" width="38" height="40">
<path d="M107.95 26.1905V46.8375C107.95 48.2515 106.814 49.086 105.408 48.7052L73.3788 40.0523C72.674 39.8427 72.0513 39.4183 71.5966 38.8376C71.1419 38.2569 70.8777 37.5486 70.8403 36.8104V9.40137C70.8403 11.7194 72.7104 14.1136 75.0217 14.7395L105.405 22.9486C106.11 23.1574 106.734 23.5814 107.19 24.1622C107.646 24.7429 107.911 25.4516 107.95 26.1905Z" fill="white"/>
</mask>
<g mask="url(#mask0_6_1399)">
<path d="M105.418 0.0928756L73.3788 8.7656C72.6748 8.97539 72.0527 9.39944 71.5981 9.97939C71.1436 10.5593 70.8788 11.2667 70.8403 12.0042V17.4648L107.95 7.16285V1.95723C107.95 0.549858 106.82 -0.287943 105.418 0.0928756Z" fill="black"/>
<path d="M70.8503 27.3993C70.8503 28.81 71.9862 29.6445 73.3888 29.2636L105.418 20.5942C106.121 20.3823 106.741 19.957 107.194 19.3766C107.648 18.7963 107.911 18.0893 107.95 17.3523V9.79224L70.8438 20.0909L70.8503 27.3993Z" fill="black"/>
</g>
</g>
<path d="M107.95 30.3958V51.0428C107.95 52.4568 106.814 53.2913 105.408 52.9105L73.3788 44.2543C72.6741 44.0458 72.0512 43.6221 71.5964 43.0419C71.1416 42.4617 70.8774 41.7536 70.8403 41.0157V13.6067C70.8403 15.9247 72.7104 18.3189 75.0217 18.9415L105.414 27.1638C106.117 27.3738 106.737 27.7971 107.191 28.3757C107.645 28.9543 107.91 29.6599 107.95 30.3958Z" fill="url(#paint2_linear_6_1399)"/>
<path d="M95.4614 38.0222C95.4614 35.9061 97.1702 34.6544 99.2741 35.2339L107.62 37.5221C108.003 37.6386 108.341 37.8708 108.588 38.1873C108.835 38.5037 108.979 38.8889 109 39.2905V44.1881C109.006 44.357 108.971 44.5248 108.897 44.6766C108.822 44.8283 108.712 44.9592 108.576 45.0576C108.439 45.156 108.28 45.2188 108.114 45.2404C107.947 45.2621 107.777 45.2418 107.62 45.1816L99.2741 42.8933C97.1702 42.3271 95.4614 40.1415 95.4614 38.0222Z" fill="url(#paint3_linear_6_1399)"/>
<path d="M100.974 40.7789C101.659 40.1776 101.578 38.9563 100.792 38.0511C100.006 37.1459 98.8142 36.8996 98.1293 37.501C97.4444 38.1023 97.5261 39.3236 98.3117 40.2288C99.0974 41.134 100.29 41.3803 100.974 40.7789Z" fill="white"/>
<path d="M27.2352 32.4028C26.5976 32.4095 25.9611 32.3507 25.3354 32.2272C24.7952 32.1181 24.2746 31.9271 23.7913 31.661C23.3268 31.401 22.9085 31.0653 22.5533 30.6675C22.1707 30.2283 21.8484 29.7393 21.5952 29.2138C19.2839 31.3618 15.8235 32.4359 11.2141 32.4359C8.58014 32.4182 6.40382 32.0871 4.68516 31.4424C2.9665 30.7978 1.69891 29.8143 0.882378 28.4919C0.535753 27.8727 0.289042 27.2021 0.151453 26.505C0.0505745 26.0115 -0.000170198 25.5088 4.28855e-07 25.0049C4.28855e-07 24.8129 2.25682e-07 24.495 0.0460946 24.0545C0.099724 23.4902 0.220204 22.9344 0.404972 22.3988C0.614398 21.7509 0.893725 21.1279 1.23796 20.5411L3.67109 22.0776C3.4359 22.4662 3.23326 22.8738 3.06528 23.2962C2.91056 23.6858 2.80867 24.0946 2.76237 24.5115C2.74648 24.6633 2.73879 24.8159 2.73932 24.9685C2.74288 25.2633 2.77375 25.5571 2.83151 25.8461C2.92015 26.2359 3.08099 26.6055 3.30562 26.9355C3.57038 27.3617 3.9401 27.7119 4.37896 27.9521C4.92742 28.2584 5.51435 28.4889 6.12397 28.6376C6.88124 28.8265 7.65171 28.9571 8.42869 29.0284C9.28911 29.1145 10.2143 29.1575 11.2042 29.1575C12.1031 29.1575 12.9591 29.1244 13.7658 29.0549C14.5227 28.9931 15.2749 28.8825 16.0178 28.7237C16.6625 28.5916 17.2939 28.401 17.9044 28.1541C18.4289 27.9462 18.9177 27.6568 19.3531 27.2965C19.7112 27.0251 20.015 26.688 20.2486 26.303C20.4759 25.9226 20.6666 25.5212 20.8182 25.1043C20.9697 24.6828 21.0961 24.2527 21.1968 23.8161C21.2956 23.3757 21.4042 22.9518 21.5261 22.5478L24.4267 23.3327C24.2695 23.7804 24.143 24.2384 24.0481 24.7036C23.9669 25.1092 23.925 25.5217 23.923 25.9355V26.3461C23.9377 26.6578 23.9976 26.9657 24.1008 27.26C24.2137 27.6295 24.4071 27.9689 24.6671 28.2535C24.954 28.5511 25.3056 28.7778 25.6943 28.9158C26.1963 29.0884 26.7246 29.1702 27.2549 29.1575H27.7093V32.4028H27.2352ZM12.0339 19.5145L9.89053 21.6703L7.72081 19.5013L9.86419 17.3323L12.0339 19.5145ZM16.8014 19.5145L14.658 21.6835L12.4883 19.5013L14.6317 17.3455L16.8014 19.5145Z" fill="#0C1229"/>
<path d="M39.154 29.1509V32.3961H27.209V29.1509H39.154Z" fill="#0C1229"/>
<path d="M38.6501 29.1509H39.6082C39.9973 29.1617 40.3856 29.108 40.7573 28.9919C41.038 28.9009 41.284 28.7252 41.4619 28.4886C41.6451 28.2264 41.7646 27.9247 41.8109 27.6077C41.8783 27.1773 41.9091 26.742 41.9031 26.3063C41.9031 26.1143 41.9031 25.8825 41.9031 25.6109C41.9031 25.3394 41.9031 24.9751 41.9031 24.5115C41.9031 24.0479 41.88 23.4684 41.8471 22.7631C41.8142 22.0577 41.7582 21.1702 41.6825 20.1139C41.6495 19.2087 41.6122 18.3422 41.5705 17.5144C41.5277 16.6832 41.4882 15.9447 41.4487 15.2924C41.4092 14.64 41.3796 14.1036 41.3499 13.6797C41.3203 13.2558 41.3006 13.0174 41.294 12.9081L44.4712 12.2227C44.5634 13.2161 44.649 14.385 44.7313 15.7096C44.8136 17.0342 44.8827 18.4681 44.9519 19.998C44.9848 21.1504 45.0144 22.0941 45.0375 22.8359C45.0605 23.5777 45.0869 24.187 45.1099 24.6738C45.133 25.1606 45.1428 25.5579 45.1527 25.8659C45.1626 26.1739 45.1527 26.4752 45.1527 26.7633C45.1641 27.5594 45.053 28.3525 44.8235 29.1144C44.6325 29.7834 44.2841 30.3962 43.8079 30.9011C43.3316 31.406 42.7415 31.7882 42.0874 32.0153C41.2841 32.2935 40.4379 32.4258 39.5885 32.406H38.6304L38.6501 29.1509Z" fill="#0C1229"/>
<path d="M51.0234 12.2192C51.2429 13.8352 51.391 15.3806 51.4678 16.8553C51.5447 18.33 51.5952 19.765 51.6193 21.1602C51.6358 22.3523 51.6424 23.4584 51.6358 24.4717C51.6292 25.485 51.6358 26.432 51.6061 27.3063C51.5765 28.1805 51.5633 28.9984 51.5304 29.7568C51.4975 30.5151 51.4613 31.2204 51.4283 31.8794L48.1359 32.3894C48.3137 29.5967 48.4026 27.1308 48.4026 24.9916C48.4026 24.1306 48.3894 23.3226 48.3631 22.5676C48.2972 20.8368 48.2215 19.2064 48.1359 17.6765C48.0503 16.1466 47.9405 14.6863 47.8066 13.2955L51.0234 12.2192Z" fill="#0C1229"/>
<path d="M53.6475 38.1149C54.7923 37.891 55.9135 37.5584 56.9959 37.1214C57.9071 36.7567 58.7769 36.2949 59.5903 35.7439C60.2601 35.2927 60.8612 34.7461 61.3748 34.1213C61.7963 33.6154 62.1081 33.0267 62.2902 32.3927C61.6097 32.3927 60.9446 32.3717 60.2949 32.3298C59.6786 32.2918 59.0658 32.2099 58.461 32.0847C57.9136 31.9705 57.3803 31.7962 56.8708 31.5648C56.4025 31.35 55.9791 31.0477 55.6229 30.674C55.2636 30.2939 54.9867 29.8428 54.8097 29.3494C54.6031 28.7458 54.505 28.11 54.52 27.4718C54.522 26.9823 54.5728 26.4942 54.6714 26.0148C54.77 25.5024 54.9155 25.0002 55.106 24.5147C55.2921 24.0321 55.526 23.5694 55.804 23.1338C56.0738 22.7087 56.3969 22.3202 56.7654 21.9781C57.1178 21.6484 57.523 21.3808 57.9639 21.1867C58.4085 20.9886 58.89 20.8881 59.3763 20.892C60.6758 20.892 61.8654 21.4759 62.9453 22.6437C63.3446 23.0929 63.6935 23.5848 63.9858 24.1107C64.2978 24.6686 64.559 25.2538 64.7661 25.8592C64.9851 26.4941 65.1503 27.1466 65.2599 27.8096C65.3732 28.4881 65.4305 29.1748 65.4312 29.8627C65.4382 30.8905 65.2996 31.9141 65.0196 32.9026C64.7581 33.8205 64.3714 34.6976 63.8705 35.5088C63.382 36.3015 62.7908 37.0254 62.1124 37.6612C61.4272 38.3018 60.6742 38.8648 59.8669 39.3401C59.0383 39.8295 58.1638 40.2354 57.256 40.5521C56.3285 40.8782 55.3745 41.122 54.4047 41.2806L53.6475 38.1149ZM59.3763 24.1571C59.117 24.1719 58.8691 24.2694 58.6685 24.4352C58.4017 24.6376 58.1674 24.8799 57.9737 25.1538C57.7601 25.4543 57.5842 25.7802 57.4502 26.1241C57.3179 26.4547 57.2486 26.8075 57.2461 27.1639C57.2338 27.4763 57.3203 27.7847 57.493 28.0447C57.6573 28.279 57.8723 28.4726 58.1219 28.611C58.3955 28.7628 58.6893 28.8744 58.9944 28.9421C59.3236 29.0117 59.6529 29.0647 59.9591 29.1011L60.5386 29.1243C60.7493 29.1243 60.9666 29.1243 61.1971 29.1441H61.8555H62.4712C62.4416 28.7983 62.381 28.4558 62.2902 28.1209C62.1894 27.7436 62.0652 27.3731 61.9181 27.0115C61.7671 26.6439 61.5945 26.2856 61.4012 25.9386C61.2201 25.6159 61.0107 25.31 60.7756 25.0247C60.5767 24.7807 60.3451 24.5656 60.0875 24.3855C59.8796 24.2374 59.6312 24.1576 59.3763 24.1571Z" fill="#0C1229"/>
<path d="M1.43892 40.2808C1.55857 40.4156 1.70131 40.5278 1.86036 40.6119C2.01363 40.6891 2.18283 40.7288 2.35423 40.7278C2.53548 40.7359 2.71378 40.6796 2.85797 40.5688C2.92154 40.5166 2.97217 40.4502 3.00588 40.3749C3.03959 40.2997 3.05545 40.2175 3.05223 40.135C3.05606 39.9942 3.00931 39.8566 2.92053 39.7476C2.82209 39.6388 2.70209 39.5519 2.56824 39.4926C2.41349 39.4165 2.23899 39.337 1.99535 39.2509C1.87682 39.2078 1.73854 39.1482 1.58379 39.0754C1.42503 38.9975 1.27677 38.8995 1.1426 38.784C1.00745 38.6621 0.895832 38.5161 0.813357 38.3535C0.719188 38.1611 0.672864 37.9486 0.678367 37.7342C0.67118 37.4686 0.74846 37.2076 0.898962 36.9892C1.04751 36.7753 1.25288 36.6077 1.4916 36.5057C1.75798 36.3875 2.04665 36.3287 2.33777 36.3335C2.62163 36.3272 2.9035 36.3826 3.16417 36.4957C3.38299 36.5949 3.58084 36.7354 3.74694 36.9097C3.89172 37.064 4.01269 37.2392 4.10581 37.4296L3.30245 37.8799C3.23563 37.7604 3.15495 37.6492 3.0621 37.5488C2.96601 37.4527 2.85475 37.3732 2.73286 37.3137C2.60622 37.25 2.46613 37.2182 2.3246 37.221C2.16079 37.2098 1.99874 37.2606 1.87024 37.3634C1.82279 37.4043 1.78469 37.4551 1.75855 37.5123C1.73241 37.5694 1.71885 37.6316 1.71878 37.6945C1.71666 37.8169 1.76146 37.9355 1.8439 38.0256C1.94995 38.1379 2.07619 38.2289 2.21594 38.2939C2.42104 38.3923 2.63219 38.4775 2.84809 38.5489C3.00978 38.607 3.16619 38.679 3.31562 38.7641C3.46657 38.856 3.60492 38.9673 3.72718 39.0952C3.84986 39.2197 3.94716 39.3671 4.01362 39.529C4.16241 39.9289 4.14821 40.3716 3.97411 40.7609C3.88029 40.9509 3.74527 41.1172 3.57902 41.2477C3.41011 41.3802 3.21961 41.4821 3.01601 41.549C2.51933 41.7121 1.98042 41.6862 1.50148 41.4762C1.24175 41.3651 1.00669 41.203 0.810065 40.9993C0.620054 40.8066 0.464165 40.5826 0.349121 40.337L1.08005 39.8171C1.18344 39.9837 1.30371 40.1391 1.43892 40.2808Z" fill="#0C1229"/>
<path d="M7.08192 36.436V41.4893H6.0415V36.436H7.08192Z" fill="#0C1229"/>
<path d="M13.8085 36.4361V41.7344L10.2329 38.3534V41.4861H9.24512V36.1877L12.8207 39.5721V36.4361H13.8085Z" fill="#0C1229"/>
<path d="M17.0252 39.827C17.1675 40.0676 17.3724 40.2646 17.6178 40.3966C17.862 40.5307 18.1364 40.5991 18.4146 40.5953C18.8217 40.6093 19.2228 40.4934 19.5604 40.2641C19.7031 40.1641 19.8335 40.0473 19.9489 39.9164V41.0721C19.7505 41.2338 19.5284 41.3634 19.2904 41.4563C18.9953 41.5541 18.6857 41.6001 18.3751 41.592C18.011 41.5956 17.6494 41.5316 17.3083 41.4033C16.9908 41.2856 16.7012 41.1026 16.458 40.8659C16.2148 40.6293 16.0234 40.3443 15.8959 40.029C15.6324 39.344 15.6324 38.5848 15.8959 37.8997C16.0234 37.5845 16.2148 37.2994 16.458 37.0628C16.7012 36.8262 16.9908 36.6432 17.3083 36.5255C17.6494 36.3972 18.011 36.3332 18.3751 36.3367C18.686 36.328 18.9959 36.3751 19.2904 36.4758C19.5283 36.5675 19.7504 36.696 19.9489 36.8566V38.019C19.8326 37.8937 19.7022 37.7826 19.5604 37.6878C19.4042 37.5782 19.2335 37.4913 19.0533 37.4295C18.8468 37.3642 18.6311 37.3329 18.4146 37.3368C18.1366 37.3343 17.8625 37.4026 17.6178 37.5355C17.374 37.6682 17.1694 37.8636 17.0252 38.1017C16.8763 38.3676 16.7981 38.6675 16.7981 38.9727C16.7981 39.2778 16.8763 39.5777 17.0252 39.8436V39.827Z" fill="#0C1229"/>
<path d="M23.0341 36.436V41.4893H22.0464V36.436H23.0341ZM22.7049 36.436H25.2401V37.3103H22.7049V36.436ZM22.7049 38.3766H25.0952V39.2375H22.7049V38.3766ZM22.7049 40.6151H25.2401V41.4893H22.7049V40.6151Z" fill="#0C1229"/>
<path d="M32.4374 39.0852C32.5536 38.9605 32.6635 38.8301 32.7667 38.6944C32.8535 38.5853 32.9234 38.4636 32.9741 38.3335C33.0227 38.2148 33.0473 38.0876 33.0465 37.9593C33.0467 37.8676 33.03 37.7766 32.9972 37.691C32.9631 37.6051 32.9115 37.5272 32.8457 37.4625C32.7767 37.3919 32.6937 37.3366 32.6021 37.3003C32.4979 37.2563 32.3857 37.2348 32.2728 37.2374C32.1113 37.2334 31.9522 37.2772 31.8152 37.3632C31.6865 37.4529 31.585 37.5767 31.5221 37.7208C31.4497 37.889 31.4138 38.0708 31.4168 38.254H30.4126C30.4078 37.9172 30.481 37.5838 30.6266 37.2804C30.769 36.9948 30.9895 36.7559 31.262 36.5916C31.5754 36.4122 31.9322 36.324 32.2926 36.3366C32.5635 36.331 32.833 36.3782 33.086 36.4757C33.2975 36.5586 33.4902 36.6836 33.6523 36.8433C33.7936 36.988 33.9054 37.1589 33.9816 37.3466C34.0523 37.5201 34.0892 37.7056 34.0902 37.893C34.0923 38.1581 34.0265 38.4192 33.8993 38.6514C33.7648 38.8919 33.5925 39.1088 33.3889 39.2938L32.072 40.5356H34.1989V41.4827H30.1558L32.4374 39.0852Z" fill="#0C1229"/>
<path d="M36.1412 37.5719C36.2906 37.2102 36.5368 36.8973 36.8523 36.6679C37.1667 36.4584 37.5354 36.3467 37.9125 36.3467C38.2896 36.3467 38.6583 36.4584 38.9727 36.6679C39.2871 36.8968 39.5313 37.2101 39.6773 37.5719C40.011 38.4653 40.011 39.4502 39.6773 40.3436C39.5314 40.7063 39.2873 41.0207 38.9727 41.2509C38.6583 41.4604 38.2896 41.5721 37.9125 41.5721C37.5354 41.5721 37.1667 41.4604 36.8523 41.2509C36.5367 41.0202 36.2905 40.7062 36.1412 40.3436C35.8032 39.451 35.8032 38.4645 36.1412 37.5719ZM36.9577 39.6548C36.9968 39.846 37.0669 40.0295 37.1651 40.1979C37.249 40.3315 37.3615 40.4446 37.4944 40.529C37.6184 40.6111 37.7641 40.6538 37.9125 40.6516C38.062 40.6538 38.2087 40.6112 38.3339 40.529C38.4675 40.4455 38.5802 40.3322 38.6632 40.1979C38.7614 40.0295 38.8315 39.846 38.8706 39.6548C38.9215 39.4266 38.9458 39.1932 38.943 38.9594C38.9457 38.7245 38.9213 38.49 38.8706 38.2607C38.8315 38.0705 38.7614 37.8881 38.6632 37.7209C38.5822 37.5796 38.4695 37.4594 38.3339 37.3699C38.2081 37.2892 38.0618 37.2466 37.9125 37.2474C37.7643 37.2467 37.619 37.2893 37.4944 37.3699C37.3596 37.4603 37.247 37.5803 37.1651 37.7209C37.0669 37.8881 36.9968 38.0705 36.9577 38.2607C36.907 38.49 36.8827 38.7245 36.8853 38.9594C36.8825 39.1932 36.9068 39.4266 36.9577 39.6548Z" fill="#0C1229"/>
<path d="M41.8339 37.5719C41.981 37.2089 42.2277 36.8954 42.5451 36.6678C42.8513 36.4481 43.2192 36.3321 43.5954 36.3367C43.9779 36.3302 44.3526 36.4461 44.6654 36.6678C44.978 36.8979 45.2209 37.2109 45.3667 37.5719C45.7047 38.4645 45.7047 39.4509 45.3667 40.3436C45.2209 40.7055 44.9782 41.0196 44.6654 41.2509C44.3519 41.4712 43.9777 41.587 43.5954 41.582C43.2194 41.5851 42.852 41.4692 42.5451 41.2509C42.2276 41.0221 41.981 40.7075 41.8339 40.3436C41.4916 39.4517 41.4916 38.4637 41.8339 37.5719ZM42.6471 39.6548C42.6894 39.8451 42.7593 40.028 42.8545 40.1979C42.9394 40.3307 43.0517 40.4437 43.1838 40.529C43.3093 40.6091 43.4549 40.6516 43.6036 40.6516C43.7522 40.6516 43.8978 40.6091 44.0234 40.529C44.156 40.4444 44.2685 40.3313 44.3526 40.1979C44.4479 40.028 44.5178 39.8451 44.56 39.6548C44.6094 39.4263 44.6336 39.1931 44.6325 38.9594C44.6334 38.7245 44.6092 38.4902 44.56 38.2606C44.518 38.0714 44.4481 37.8894 44.3526 37.7209C44.2705 37.5805 44.158 37.4605 44.0234 37.3699C43.8978 37.2898 43.7522 37.2472 43.6036 37.2472C43.4549 37.2472 43.3093 37.2898 43.1838 37.3699C43.0498 37.4612 42.9374 37.5811 42.8545 37.7209C42.7591 37.8894 42.6892 38.0714 42.6471 38.2606C42.598 38.4902 42.5737 38.7245 42.5747 38.9594C42.5735 39.1931 42.5978 39.4263 42.6471 39.6548Z" fill="#0C1229"/>
<path d="M47.8919 41.4695L49.5084 39.5654L49.6862 39.4992C49.5874 39.6119 49.4616 39.6974 49.3208 39.7476C49.1749 39.7933 49.0225 39.8145 48.8697 39.8105C48.6773 39.8098 48.487 39.7704 48.31 39.6946C47.9306 39.5317 47.6294 39.2264 47.4704 38.8435C47.3841 38.6336 47.3404 38.4084 47.342 38.1812C47.3323 37.8319 47.4226 37.4871 47.6021 37.1878C47.7725 36.9177 48.0157 36.7018 48.3034 36.5652C48.6115 36.4172 48.9497 36.3435 49.2911 36.35C49.6325 36.3444 49.9705 36.418 50.2789 36.5652C50.5649 36.7029 50.8068 36.9186 50.9769 37.1878C51.1574 37.4868 51.2488 37.8316 51.2403 38.1812C51.2426 38.4209 51.1932 38.6581 51.0954 38.8766C51.0014 39.0884 50.8832 39.2885 50.7431 39.4727L49.2154 41.4795L47.8919 41.4695ZM50.0879 37.6713C50.011 37.5322 49.8969 37.4175 49.7587 37.3401C49.6116 37.2618 49.4477 37.2209 49.2813 37.2209C49.1149 37.2209 48.951 37.2618 48.8039 37.3401C48.6656 37.4175 48.5516 37.5322 48.4746 37.6713C48.3901 37.8239 48.3481 37.9967 48.3528 38.1713C48.349 38.3459 48.391 38.5183 48.4746 38.6713C48.5528 38.8095 48.6665 38.9239 48.8039 39.0025C48.95 39.0837 49.1143 39.1262 49.2813 39.1262C49.4482 39.1262 49.6125 39.0837 49.7587 39.0025C49.896 38.9239 50.0098 38.8095 50.0879 38.6713C50.1715 38.5183 50.2135 38.3459 50.2097 38.1713C50.2145 37.9967 50.1724 37.8239 50.0879 37.6713Z" fill="#0C1229"/>
</g>
<defs>
<linearGradient id="paint0_linear_6_1399" x1="70.8502" y1="8.73224" x2="107.956" y2="8.73224" gradientUnits="userSpaceOnUse">
<stop stop-color="#5BB9FD"/>
<stop offset="1" stop-color="#8E88FF"/>
</linearGradient>
<linearGradient id="paint1_linear_6_1399" x1="70.8503" y1="19.5741" x2="107.956" y2="19.5741" gradientUnits="userSpaceOnUse">
<stop stop-color="#5BB9FD"/>
<stop offset="1" stop-color="#8E88FF"/>
</linearGradient>
<linearGradient id="paint2_linear_6_1399" x1="70.8502" y1="33.3033" x2="107.956" y2="33.3033" gradientUnits="userSpaceOnUse">
<stop stop-color="#5BBAFD"/>
<stop offset="1" stop-color="#36EDFD"/>
</linearGradient>
<linearGradient id="paint3_linear_6_1399" x1="95.4614" y1="40.1713" x2="109" y2="40.1713" gradientUnits="userSpaceOnUse">
<stop stop-color="#5BB9FD"/>
<stop offset="1" stop-color="#8E88FF"/>
</linearGradient>
<clipPath id="clip0_6_1399">
<rect width="109" height="53" fill="white"/>
</clipPath>
</defs>
</svg>
